<?xml version="1.0" encoding="utf-8"?>
<!-- Generator: Adobe Illustrator 26.3.1, SVG Export Plug-In . SVG Version: 6.00 Build 0)  -->
<svg version="1.1" id="Шар_1" xmlns="http://www.w3.org/2000/svg" xmlns:xlink="http://www.w3.org/1999/xlink" x="0px" y="0px"
	 viewBox="0 0 996 103.75" style="enable-background:new 0 0 996 103.75;" xml:space="preserve">
<style type="text/css">
	.st0{fill:url(#SVGID_1_);}
	.st1{fill:#6516D1;}
	.st2{fill:url(#SVGID_00000077289658035427989020000001155667238154372002_);}
	.st3{fill:url(#SVGID_00000102544968513152829570000013989342778900756902_);}
	.st4{fill:url(#SVGID_00000075139319978594490650000006462128409139142547_);}
	.st5{fill:#FFFFFF;}
</style>
<g>
	<g>
		
			<linearGradient id="SVGID_1_" gradientUnits="userSpaceOnUse" x1="160.1086" y1="10.6859" x2="160.1086" y2="91.3939" gradientTransform="matrix(1 0 0 -1 0 102.5257)">
			<stop  offset="0" style="stop-color:#9A00DD"/>
			<stop  offset="0.5553" style="stop-color:#9801DE"/>
			<stop  offset="0.7554" style="stop-color:#9105E1"/>
			<stop  offset="0.8974" style="stop-color:#860BE7"/>
			<stop  offset="1" style="stop-color:#7713EE"/>
		</linearGradient>
		<path class="st0" d="M279.23,91.84H40.99c-22.29,0-40.35-18.06-40.35-40.35l0,0c0-22.29,18.06-40.35,40.35-40.35h238.24
			c22.29,0,40.35,18.06,40.35,40.35l0,0C319.58,73.77,301.51,91.84,279.23,91.84z"/>
		<path class="st1" d="M279.23,92.48H40.99c-5.53,0-10.9-1.09-15.95-3.22c-4.88-2.06-9.26-5.02-13.03-8.78
			c-3.76-3.76-6.72-8.15-8.78-13.03C1.09,62.39,0,57.02,0,51.49s1.09-10.9,3.22-15.95c2.06-4.88,5.02-9.26,8.78-13.03
			c3.76-3.76,8.15-6.72,13.03-8.78c5.06-2.14,10.42-3.22,15.95-3.22h238.24c5.53,0,10.9,1.09,15.95,3.22
			c4.88,2.06,9.26,5.02,13.03,8.78c3.76,3.76,6.72,8.15,8.78,13.03c2.14,5.06,3.22,10.42,3.22,15.95s-1.09,10.9-3.22,15.95
			c-2.06,4.88-5.02,9.26-8.78,13.03c-3.76,3.76-8.15,6.72-13.03,8.78C290.13,91.39,284.76,92.48,279.23,92.48z M40.99,11.77
			c-21.9,0-39.72,17.82-39.72,39.72c0,21.9,17.82,39.72,39.72,39.72h238.24c21.9,0,39.72-17.82,39.72-39.72
			s-17.82-39.72-39.72-39.72C279.23,11.77,40.99,11.77,40.99,11.77z"/>
	</g>
	
		<linearGradient id="SVGID_00000145780857859128712680000004468354350138506668_" gradientUnits="userSpaceOnUse" x1="279.1952" y1="16.2345" x2="279.1952" y2="85.8378" gradientTransform="matrix(1 0 0 -1 0 102.5257)">
		<stop  offset="0" style="stop-color:#D1D1D1"/>
		<stop  offset="0.6314" style="stop-color:#F1F1F1"/>
		<stop  offset="1" style="stop-color:#FFFFFF"/>
	</linearGradient>
	<circle style="fill:url(#SVGID_00000145780857859128712680000004468354350138506668_);" cx="279.2" cy="51.49" r="34.8"/>
	<g>
		<g>
			
				<linearGradient id="SVGID_00000138562263402832623330000016774492293337028004_" gradientUnits="userSpaceOnUse" x1="279.4696" y1="72.4937" x2="278.9646" y2="34.1121" gradientTransform="matrix(1 0 0 -1 0 102.5257)">
				<stop  offset="0" style="stop-color:#FF019F"/>
				<stop  offset="1" style="stop-color:#9B1BFD"/>
			</linearGradient>
			<path style="fill:url(#SVGID_00000138562263402832623330000016774492293337028004_);" d="M279.16,71.28
				c-10.05,0-18.23-8.18-18.23-18.23c0-4.42,1.61-8.69,4.52-12.01c0.9-1.02,2.45-1.12,3.47-0.23s1.12,2.45,0.23,3.47
				c-2.13,2.43-3.29,5.54-3.29,8.77c0,7.34,5.97,13.31,13.31,13.31c7.34,0,13.31-5.97,13.31-13.31c0-3.23-1.17-6.34-3.3-8.77
				c-0.9-1.02-0.79-2.57,0.23-3.47s2.57-0.79,3.47,0.23c2.91,3.32,4.52,7.59,4.52,12.01C297.39,63.1,289.21,71.28,279.16,71.28z"/>
		</g>
		
			<linearGradient id="SVGID_00000018213333092425157550000009216414120332180103_" gradientUnits="userSpaceOnUse" x1="279.4508" y1="72.494" x2="278.9457" y2="34.1123" gradientTransform="matrix(1 0 0 -1 0 102.5257)">
			<stop  offset="0" style="stop-color:#FF019F"/>
			<stop  offset="1" style="stop-color:#9B1BFD"/>
		</linearGradient>
		<path style="fill:url(#SVGID_00000018213333092425157550000009216414120332180103_);" d="M280.16,41.9v-0.19
			c0-1.95,0.6-3.82,1.59-5.5c0.3-0.51,0.46-1.13,0.4-1.78c-0.12-1.4-1.24-2.56-2.64-2.71c-1.81-0.2-3.34,1.21-3.34,2.98
			c0,0.62,0.19,1.19,0.51,1.67c1.12,1.65,1.66,3.62,1.66,5.61v0.1c0,2.62-0.98,5.12-2.61,7.17c-0.66,0.82-1.02,1.89-0.95,3.04
			c0.15,2.18,1.92,3.94,4.09,4.08c2.56,0.17,4.69-1.86,4.69-4.39c0-0.98-0.32-1.89-0.87-2.62C281.08,47.2,280.16,44.6,280.16,41.9z"
			/>
	</g>
	<g>
		<path class="st5" d="M49.3,56.8H36.58l-2.74,6.1h-2.51l10.43-22.82h2.38l10.43,22.82h-2.54L49.3,56.8z M48.41,54.84l-5.48-12.25
			l-5.48,12.25H48.41z"/>
		<path class="st5" d="M58.36,40.08h2.41v20.73h12.78v2.09H58.36L58.36,40.08L58.36,40.08z"/>
		<path class="st5" d="M107.15,40.08l-7.69,22.82h-2.54l-6.68-19.46l-6.71,19.46h-2.51l-7.69-22.82h2.48l6.58,19.62l6.81-19.62h2.25
			l6.71,19.72l6.68-19.72L107.15,40.08L107.15,40.08z"/>
		<path class="st5" d="M125.18,56.8h-12.71l-2.74,6.1h-2.51l10.43-22.82h2.38l10.43,22.82h-2.54L125.18,56.8z M124.3,54.84
			l-5.48-12.25l-5.48,12.25H124.3z"/>
		<path class="st5" d="M140.73,55.01v7.89h-2.38v-7.89l-9.13-14.93h2.57l7.82,12.81l7.82-12.81h2.41L140.73,55.01z"/>
		<path class="st5" d="M154.53,62.28c-1.55-0.54-2.76-1.26-3.6-2.15l0.94-1.86c0.83,0.83,1.92,1.5,3.29,2
			c1.37,0.51,2.78,0.77,4.24,0.77c2.04,0,3.58-0.38,4.6-1.12c1.02-0.75,1.53-1.72,1.53-2.92c0-0.91-0.28-1.64-0.83-2.18
			c-0.55-0.54-1.23-0.96-2.04-1.26c-0.8-0.29-1.92-0.61-3.36-0.96c-1.72-0.44-3.09-0.85-4.11-1.26s-1.9-1.02-2.62-1.84
			c-0.73-0.83-1.09-1.94-1.09-3.36c0-1.15,0.3-2.2,0.91-3.15c0.61-0.94,1.54-1.7,2.8-2.27c1.26-0.57,2.82-0.85,4.69-0.85
			c1.3,0,2.58,0.18,3.83,0.54c1.25,0.36,2.33,0.85,3.24,1.48l-0.82,1.92c-0.96-0.63-1.98-1.1-3.06-1.42
			c-1.09-0.31-2.15-0.47-3.2-0.47c-2,0-3.5,0.39-4.52,1.16c-1.01,0.77-1.51,1.76-1.51,2.98c0,0.91,0.28,1.65,0.83,2.2
			c0.55,0.55,1.25,0.98,2.09,1.27c0.83,0.29,1.96,0.61,3.37,0.96c1.67,0.41,3.02,0.82,4.06,1.22s1.91,1.01,2.62,1.83
			c0.72,0.82,1.07,1.92,1.07,3.31c0,1.15-0.31,2.2-0.93,3.15c-0.62,0.94-1.57,1.7-2.85,2.25c-1.28,0.55-2.86,0.83-4.72,0.83
			C157.71,63.09,156.08,62.82,154.53,62.28z"/>
		<path class="st5" d="M185.53,61.58c-1.84-1.01-3.27-2.39-4.3-4.16c-1.03-1.76-1.55-3.74-1.55-5.93c0-2.19,0.52-4.17,1.55-5.93
			c1.03-1.76,2.47-3.15,4.3-4.16s3.88-1.51,6.14-1.51c2.26,0,4.3,0.5,6.11,1.5c1.81,1,3.24,2.39,4.28,4.16
			c1.04,1.77,1.56,3.75,1.56,5.95s-0.52,4.18-1.56,5.95c-1.04,1.77-2.47,3.16-4.28,4.16c-1.81,1-3.85,1.5-6.11,1.5
			C189.41,63.09,187.37,62.59,185.53,61.58z M196.56,59.72c1.46-0.82,2.6-1.94,3.42-3.39s1.24-3.06,1.24-4.84s-0.41-3.4-1.24-4.84
			c-0.83-1.45-1.97-2.58-3.42-3.39c-1.46-0.82-3.09-1.22-4.89-1.22s-3.44,0.41-4.91,1.22c-1.46,0.82-2.62,1.95-3.45,3.39
			c-0.83,1.45-1.26,3.06-1.26,4.84s0.42,3.4,1.26,4.84c0.83,1.45,1.99,2.58,3.45,3.39c1.47,0.82,3.1,1.22,4.91,1.22
			C193.48,60.94,195.11,60.53,196.56,59.72z"/>
		<path class="st5" d="M228.12,40.08v22.82h-1.99l-14.67-18.51v18.51h-2.41V40.08h1.99l14.7,18.51V40.08H228.12z"/>
	</g>
</g>
</svg>
