<?xml version="1.0" encoding="utf-8"?>
<!-- Generator: Adobe Illustrator 26.3.1, SVG Export Plug-In . SVG Version: 6.00 Build 0)  -->
<svg version="1.1" id="Шар_1" xmlns="http://www.w3.org/2000/svg" xmlns:xlink="http://www.w3.org/1999/xlink" x="0px" y="0px"
	 viewBox="0 0 996 424" style="enable-background:new 0 0 996 424;" xml:space="preserve">
<style type="text/css">
	.st0{fill:url(#SVGID_1_);}
	.st1{fill:#6516D1;}
	.st2{fill:url(#SVGID_00000098211946600353319960000013941840245804520612_);}
	.st3{fill:url(#SVGID_00000137846013659073233270000004429601748160920705_);}
	.st4{fill:url(#SVGID_00000039118092830751110290000017412467463523170482_);}
	.st5{fill:#FFFFFF;}
</style>
<g>
	<g>
		<linearGradient id="SVGID_1_" gradientUnits="userSpaceOnUse" x1="494.2857" y1="319.422" x2="494.2857" y2="106.7685">
			<stop  offset="0" style="stop-color:#9A00DD"/>
			<stop  offset="0.5553" style="stop-color:#9801DE"/>
			<stop  offset="0.7554" style="stop-color:#9105E1"/>
			<stop  offset="0.8974" style="stop-color:#860BE7"/>
			<stop  offset="1" style="stop-color:#7713EE"/>
		</linearGradient>
		<path class="st0" d="M808.16,319.42H180.41c-58.72,0-106.33-47.6-106.33-106.33v0c0-58.72,47.6-106.33,106.33-106.33h627.75
			c58.72,0,106.33,47.6,106.33,106.33v0C914.49,271.82,866.88,319.42,808.16,319.42z"/>
		<path class="st1" d="M808.16,321.1H180.41c-14.58,0-28.72-2.86-42.04-8.49c-12.86-5.44-24.41-13.23-34.33-23.14
			c-9.92-9.92-17.7-21.47-23.14-34.33c-5.63-13.32-8.49-27.46-8.49-42.04c0-14.58,2.86-28.72,8.49-42.04
			c5.44-12.86,13.23-24.41,23.14-34.33c9.92-9.92,21.47-17.7,34.33-23.14c13.32-5.63,27.46-8.49,42.04-8.49h627.75
			c14.58,0,28.72,2.86,42.04,8.49c12.86,5.44,24.41,13.23,34.33,23.14c9.92,9.92,17.7,21.47,23.14,34.33
			c5.63,13.32,8.49,27.46,8.49,42.04s-2.86,28.72-8.49,42.04c-5.44,12.86-13.23,24.41-23.14,34.33
			c-9.92,9.92-21.47,17.7-34.33,23.14C836.88,318.24,822.74,321.1,808.16,321.1z M180.41,108.44
			c-57.71,0-104.65,46.95-104.65,104.65c0,57.71,46.95,104.65,104.65,104.65h627.75c57.71,0,104.65-46.95,104.65-104.65
			s-46.95-104.65-104.65-104.65H180.41z"/>
	</g>
	
		<linearGradient id="SVGID_00000170253679866475216670000011154508875244029581_" gradientUnits="userSpaceOnUse" x1="808.0674" y1="304.7951" x2="808.0674" y2="121.3954">
		<stop  offset="0" style="stop-color:#D1D1D1"/>
		<stop  offset="0.6314" style="stop-color:#F1F1F1"/>
		<stop  offset="1" style="stop-color:#FFFFFF"/>
	</linearGradient>
	<circle style="fill:url(#SVGID_00000170253679866475216670000011154508875244029581_);" cx="808.07" cy="213.1" r="91.7"/>
	<g>
		<g>
			
				<linearGradient id="SVGID_00000183226634674943914120000006329164171306409377_" gradientUnits="userSpaceOnUse" x1="808.7839" y1="156.5606" x2="807.4532" y2="257.6936">
				<stop  offset="0" style="stop-color:#FF019F"/>
				<stop  offset="1" style="stop-color:#9B1BFD"/>
			</linearGradient>
			<path style="fill:url(#SVGID_00000183226634674943914120000006329164171306409377_);" d="M807.99,265.24
				c-26.49,0-48.03-21.55-48.03-48.03c0-11.65,4.23-22.89,11.9-31.65c2.36-2.69,6.45-2.96,9.14-0.6c2.69,2.36,2.96,6.45,0.6,9.14
				c-5.6,6.39-8.68,14.6-8.68,23.11c0,19.34,15.73,35.08,35.08,35.08c19.34,0,35.08-15.73,35.08-35.08c0-8.51-3.08-16.71-8.69-23.11
				c-2.36-2.69-2.09-6.78,0.6-9.14c2.69-2.36,6.78-2.09,9.14,0.6c7.67,8.75,11.9,19.99,11.9,31.65
				C856.02,243.69,834.47,265.24,807.99,265.24z"/>
		</g>
		
			<linearGradient id="SVGID_00000050625289370706135960000000112762127303176627_" gradientUnits="userSpaceOnUse" x1="808.7468" y1="156.5601" x2="807.4161" y2="257.6931">
			<stop  offset="0" style="stop-color:#FF019F"/>
			<stop  offset="1" style="stop-color:#9B1BFD"/>
		</linearGradient>
		<path style="fill:url(#SVGID_00000050625289370706135960000000112762127303176627_);" d="M810.6,187.83v-0.5
			c0-5.13,1.58-10.07,4.19-14.49c0.8-1.35,1.21-2.97,1.06-4.69c-0.32-3.7-3.27-6.74-6.96-7.14c-4.76-0.53-8.79,3.19-8.79,7.84
			c0,1.63,0.5,3.14,1.34,4.4c2.94,4.35,4.37,9.54,4.37,14.79v0.26c0,6.91-2.57,13.5-6.89,18.9c-1.73,2.17-2.7,4.98-2.5,8.02
			c0.39,5.74,5.05,10.38,10.79,10.75c6.75,0.44,12.36-4.91,12.36-11.56c0-2.59-0.85-4.97-2.29-6.9
			C813.04,201.79,810.6,194.94,810.6,187.83z"/>
	</g>
	<g>
		<path class="st5" d="M202.3,227.09h-33.5l-7.21,16.06h-6.61l27.48-60.12h6.27l27.48,60.12h-6.7L202.3,227.09z M199.98,221.94
			l-14.43-32.29l-14.43,32.29H199.98z"/>
		<path class="st5" d="M226.18,183.03h6.36v54.62h33.67v5.5h-40.02V183.03z"/>
		<path class="st5" d="M354.75,183.03l-20.27,60.12h-6.7l-17.61-51.28l-17.69,51.28h-6.61l-20.27-60.12h6.53l17.35,51.7l17.95-51.7
			h5.93L331.05,235l17.61-51.96H354.75z"/>
		<path class="st5" d="M402.25,227.09h-33.5l-7.21,16.06h-6.61l27.48-60.12h6.27l27.48,60.12h-6.7L402.25,227.09z M399.93,221.94
			l-14.43-32.29l-14.43,32.29H399.93z"/>
		<path class="st5" d="M443.22,222.37v20.78h-6.27v-20.78l-24.05-39.34h6.78l20.61,33.75l20.61-33.75h6.36L443.22,222.37z"/>
		<path class="st5" d="M479.59,241.52c-4.09-1.43-7.26-3.32-9.49-5.67l2.49-4.89c2.18,2.18,5.07,3.94,8.67,5.28
			c3.61,1.35,7.33,2.02,11.17,2.02c5.38,0,9.42-0.99,12.11-2.96c2.69-1.97,4.04-4.54,4.04-7.69c0-2.4-0.73-4.32-2.19-5.75
			c-1.46-1.43-3.25-2.53-5.37-3.31c-2.12-0.77-5.07-1.62-8.85-2.53c-4.52-1.15-8.13-2.25-10.82-3.31c-2.69-1.06-5-2.68-6.91-4.85
			c-1.92-2.18-2.88-5.12-2.88-8.85c0-3.03,0.8-5.8,2.4-8.29c1.6-2.49,4.07-4.48,7.39-5.97c3.32-1.49,7.44-2.23,12.37-2.23
			c3.43,0,6.8,0.47,10.09,1.42c3.29,0.95,6.14,2.25,8.55,3.91l-2.15,5.07c-2.52-1.66-5.21-2.91-8.07-3.74
			c-2.86-0.83-5.67-1.24-8.42-1.24c-5.27,0-9.23,1.02-11.9,3.05c-2.66,2.03-3.99,4.65-3.99,7.86c0,2.4,0.73,4.34,2.19,5.8
			c1.46,1.46,3.29,2.58,5.5,3.35c2.2,0.77,5.17,1.62,8.89,2.53c4.41,1.09,7.97,2.16,10.69,3.22c2.72,1.06,5.02,2.66,6.91,4.81
			c1.89,2.15,2.83,5.05,2.83,8.72c0,3.03-0.82,5.8-2.45,8.29c-1.63,2.49-4.14,4.47-7.52,5.92c-3.38,1.46-7.53,2.19-12.45,2.19
			C487.97,243.67,483.68,242.95,479.59,241.52z"/>
		<path class="st5" d="M561.27,239.68c-4.84-2.66-8.62-6.31-11.34-10.95c-2.72-4.64-4.08-9.85-4.08-15.63
			c0-5.78,1.36-10.99,4.08-15.63c2.72-4.64,6.5-8.29,11.34-10.95c4.84-2.66,10.23-3.99,16.19-3.99c5.95,0,11.32,1.32,16.1,3.95
			c4.78,2.64,8.55,6.29,11.29,10.95c2.75,4.67,4.12,9.89,4.12,15.67c0,5.78-1.37,11.01-4.12,15.67c-2.75,4.67-6.51,8.32-11.29,10.95
			c-4.78,2.64-10.15,3.95-16.1,3.95C571.5,243.67,566.11,242.34,561.27,239.68z M590.34,234.78c3.84-2.15,6.84-5.12,9.02-8.93
			c2.18-3.81,3.26-8.06,3.26-12.75c0-4.69-1.09-8.95-3.26-12.75c-2.18-3.81-5.18-6.79-9.02-8.93c-3.84-2.15-8.13-3.22-12.88-3.22
			c-4.75,0-9.06,1.07-12.93,3.22c-3.86,2.15-6.9,5.13-9.1,8.93c-2.2,3.81-3.31,8.06-3.31,12.75c0,4.69,1.1,8.95,3.31,12.75
			c2.2,3.81,5.24,6.79,9.1,8.93c3.87,2.15,8.17,3.22,12.93,3.22C582.21,238,586.51,236.93,590.34,234.78z"/>
		<path class="st5" d="M673.48,183.03v60.12h-5.24l-38.65-48.78v48.78h-6.36v-60.12h5.24l38.74,48.78v-48.78H673.48z"/>
	</g>
</g>
</svg>
