<?xml version="1.0" encoding="utf-8"?>
<!-- Generator: Adobe Illustrator 26.3.1, SVG Export Plug-In . SVG Version: 6.00 Build 0)  -->
<svg version="1.1" id="Шар_1" xmlns="http://www.w3.org/2000/svg" xmlns:xlink="http://www.w3.org/1999/xlink" x="0px" y="0px"
	 viewBox="0 0 996 218.72" style="enable-background:new 0 0 996 218.72;" xml:space="preserve">
<style type="text/css">
	.st0{fill:url(#SVGID_1_);}
	.st1{fill:#6516D1;}
	.st2{fill:url(#SVGID_00000096741931076862582150000009303030448822539704_);}
	.st3{fill:url(#SVGID_00000093164579665850515840000003699496278593088415_);}
	.st4{fill:url(#SVGID_00000168814420112681403280000014832410517144242851_);}
	.st5{fill:#FFFFFF;}
</style>
<g>
	<g>
		
			<linearGradient id="SVGID_1_" gradientUnits="userSpaceOnUse" x1="498" y1="68.7692" x2="498" y2="149.4772" gradientTransform="matrix(1 0 0 -1 0 220.6923)">
			<stop  offset="0" style="stop-color:#9A00DD"/>
			<stop  offset="0.5553" style="stop-color:#9801DE"/>
			<stop  offset="0.7554" style="stop-color:#9105E1"/>
			<stop  offset="0.8974" style="stop-color:#860BE7"/>
			<stop  offset="1" style="stop-color:#7713EE"/>
		</linearGradient>
		<path class="st0" d="M617.12,151.92H378.88c-22.29,0-40.35-18.06-40.35-40.35l0,0c0-22.29,18.07-40.35,40.35-40.35h238.24
			c22.29,0,40.35,18.06,40.35,40.35l0,0C657.47,133.86,639.41,151.92,617.12,151.92z"/>
		<path class="st1" d="M617.12,152.56H378.88c-5.53,0-10.9-1.09-15.95-3.22c-4.88-2.06-9.26-5.02-13.03-8.78
			c-3.76-3.76-6.72-8.15-8.78-13.03c-2.14-5.06-3.22-10.42-3.22-15.95c0-5.53,1.09-10.9,3.22-15.95c2.06-4.88,5.02-9.26,8.78-13.03
			c3.76-3.76,8.15-6.72,13.03-8.78c5.06-2.14,10.42-3.22,15.95-3.22h238.24c5.53,0,10.9,1.09,15.95,3.22
			c4.88,2.06,9.26,5.02,13.03,8.78c3.76,3.76,6.72,8.15,8.78,13.03c2.14,5.06,3.22,10.42,3.22,15.95c0,5.53-1.09,10.9-3.22,15.95
			c-2.06,4.88-5.02,9.26-8.78,13.03c-3.76,3.76-8.15,6.72-13.03,8.78C628.02,151.48,622.65,152.56,617.12,152.56z M378.88,71.85
			c-21.9,0-39.72,17.82-39.72,39.72c0,21.9,17.82,39.72,39.72,39.72h238.24c21.9,0,39.72-17.82,39.72-39.72
			s-17.82-39.72-39.72-39.72C617.12,71.85,378.88,71.85,378.88,71.85z"/>
	</g>
	
		<linearGradient id="SVGID_00000098214720118046247590000017658176124086403988_" gradientUnits="userSpaceOnUse" x1="617.0866" y1="74.3178" x2="617.0866" y2="143.9211" gradientTransform="matrix(1 0 0 -1 0 220.6923)">
		<stop  offset="0" style="stop-color:#D1D1D1"/>
		<stop  offset="0.6314" style="stop-color:#F1F1F1"/>
		<stop  offset="1" style="stop-color:#FFFFFF"/>
	</linearGradient>
	<circle style="fill:url(#SVGID_00000098214720118046247590000017658176124086403988_);" cx="617.09" cy="111.57" r="34.8"/>
	<g>
		<g>
			
				<linearGradient id="SVGID_00000005262360397250546130000003346660735610359708_" gradientUnits="userSpaceOnUse" x1="617.361" y1="130.5771" x2="616.856" y2="92.1954" gradientTransform="matrix(1 0 0 -1 0 220.6923)">
				<stop  offset="0" style="stop-color:#FF019F"/>
				<stop  offset="1" style="stop-color:#9B1BFD"/>
			</linearGradient>
			<path style="fill:url(#SVGID_00000005262360397250546130000003346660735610359708_);" d="M617.06,131.36
				c-10.05,0-18.23-8.18-18.23-18.23c0-4.42,1.61-8.69,4.52-12.01c0.9-1.02,2.45-1.12,3.47-0.23s1.12,2.45,0.23,3.47
				c-2.13,2.43-3.29,5.54-3.29,8.77c0,7.34,5.97,13.31,13.31,13.31c7.34,0,13.31-5.97,13.31-13.31c0-3.23-1.17-6.34-3.3-8.77
				c-0.9-1.02-0.79-2.57,0.23-3.47c1.02-0.9,2.57-0.79,3.47,0.23c2.91,3.32,4.52,7.59,4.52,12.01
				C635.28,123.18,627.11,131.36,617.06,131.36z"/>
		</g>
		
			<linearGradient id="SVGID_00000078747568414190238170000001929513776379668378_" gradientUnits="userSpaceOnUse" x1="617.3422" y1="130.5773" x2="616.8372" y2="92.1956" gradientTransform="matrix(1 0 0 -1 0 220.6923)">
			<stop  offset="0" style="stop-color:#FF019F"/>
			<stop  offset="1" style="stop-color:#9B1BFD"/>
		</linearGradient>
		<path style="fill:url(#SVGID_00000078747568414190238170000001929513776379668378_);" d="M618.05,101.98v-0.19
			c0-1.95,0.6-3.82,1.59-5.5c0.3-0.51,0.46-1.13,0.4-1.78c-0.12-1.4-1.24-2.56-2.64-2.71c-1.81-0.2-3.34,1.21-3.34,2.98
			c0,0.62,0.19,1.19,0.51,1.67c1.12,1.65,1.66,3.62,1.66,5.61v0.1c0,2.62-0.98,5.12-2.61,7.17c-0.66,0.82-1.02,1.89-0.95,3.04
			c0.15,2.18,1.92,3.94,4.1,4.08c2.56,0.17,4.69-1.86,4.69-4.39c0-0.98-0.32-1.89-0.87-2.62
			C618.97,107.28,618.05,104.68,618.05,101.98z"/>
	</g>
	<g>
		<path class="st5" d="M387.19,116.88h-12.71l-2.74,6.1h-2.51l10.43-22.82h2.38l10.43,22.82h-2.54L387.19,116.88z M386.31,114.93
			l-5.48-12.25l-5.48,12.25H386.31z"/>
		<path class="st5" d="M396.25,100.16h2.41v20.73h12.78v2.09h-15.19L396.25,100.16L396.25,100.16z"/>
		<path class="st5" d="M445.04,100.16l-7.69,22.82h-2.54l-6.68-19.46l-6.71,19.46h-2.51l-7.69-22.82h2.48l6.58,19.62l6.81-19.62
			h2.25l6.71,19.72l6.68-19.72L445.04,100.16L445.04,100.16z"/>
		<path class="st5" d="M463.07,116.88h-12.71l-2.74,6.1h-2.51l10.43-22.82h2.38l10.43,22.82h-2.54L463.07,116.88z M462.19,114.93
			l-5.48-12.25l-5.48,12.25H462.19z"/>
		<path class="st5" d="M478.62,115.09v7.89h-2.38v-7.89l-9.13-14.93h2.57l7.82,12.81l7.82-12.81h2.41L478.62,115.09z"/>
		<path class="st5" d="M492.42,122.36c-1.55-0.54-2.76-1.26-3.6-2.15l0.95-1.86c0.83,0.83,1.92,1.5,3.29,2
			c1.37,0.51,2.78,0.77,4.24,0.77c2.04,0,3.58-0.38,4.6-1.12c1.02-0.75,1.53-1.72,1.53-2.92c0-0.91-0.28-1.64-0.83-2.18
			c-0.55-0.54-1.23-0.96-2.04-1.26c-0.8-0.29-1.92-0.61-3.36-0.96c-1.72-0.44-3.09-0.85-4.11-1.26c-1.02-0.4-1.9-1.02-2.62-1.84
			c-0.73-0.83-1.09-1.94-1.09-3.36c0-1.15,0.3-2.2,0.91-3.15c0.61-0.94,1.54-1.7,2.8-2.27c1.26-0.57,2.82-0.85,4.69-0.85
			c1.3,0,2.58,0.18,3.83,0.54c1.25,0.36,2.33,0.85,3.24,1.48l-0.82,1.92c-0.96-0.63-1.98-1.1-3.06-1.42
			c-1.09-0.32-2.15-0.47-3.2-0.47c-2,0-3.5,0.39-4.52,1.16c-1.01,0.77-1.51,1.76-1.51,2.98c0,0.91,0.28,1.65,0.83,2.2
			c0.55,0.55,1.25,0.98,2.09,1.27c0.83,0.29,1.96,0.61,3.37,0.96c1.67,0.41,3.02,0.82,4.06,1.22c1.03,0.4,1.91,1.01,2.62,1.83
			s1.07,1.92,1.07,3.31c0,1.15-0.31,2.2-0.93,3.15c-0.62,0.94-1.57,1.7-2.85,2.25c-1.28,0.55-2.86,0.83-4.72,0.83
			C495.6,123.17,493.98,122.9,492.42,122.36z"/>
		<path class="st5" d="M523.42,121.66c-1.84-1.01-3.27-2.39-4.3-4.16c-1.03-1.76-1.55-3.74-1.55-5.93c0-2.19,0.52-4.17,1.55-5.93
			c1.03-1.76,2.47-3.15,4.3-4.16s3.88-1.51,6.14-1.51c2.26,0,4.3,0.5,6.11,1.5c1.81,1,3.24,2.39,4.28,4.16
			c1.04,1.77,1.56,3.75,1.56,5.95c0,2.19-0.52,4.18-1.56,5.95c-1.04,1.77-2.47,3.16-4.28,4.16c-1.81,1-3.85,1.5-6.11,1.5
			C527.3,123.17,525.26,122.67,523.42,121.66z M534.45,119.8c1.46-0.82,2.6-1.94,3.42-3.39c0.83-1.45,1.24-3.06,1.24-4.84
			c0-1.78-0.41-3.4-1.24-4.84c-0.83-1.45-1.97-2.58-3.42-3.39c-1.46-0.82-3.09-1.22-4.89-1.22c-1.8,0-3.44,0.41-4.91,1.22
			c-1.46,0.82-2.62,1.95-3.45,3.39c-0.83,1.45-1.26,3.06-1.26,4.84c0,1.78,0.42,3.4,1.26,4.84c0.83,1.45,1.99,2.58,3.45,3.39
			c1.47,0.82,3.1,1.22,4.91,1.22C531.37,121.02,533,120.62,534.45,119.8z"/>
		<path class="st5" d="M566.01,100.16v22.82h-1.99l-14.67-18.51v18.51h-2.41v-22.82h1.99l14.7,18.51v-18.51H566.01z"/>
	</g>
</g>
</svg>
